<?xml version="1.0" encoding="UTF-8"?>
<svg width="479px" height="73px" viewBox="0 0 479 73" version="1.1" xmlns="http://www.w3.org/2000/svg" xmlns:xlink="http://www.w3.org/1999/xlink">
    <title>wroc_logo</title>
    <defs>
        <polygon id="path-1" points="0 72.504 478.814 72.504 478.814 0 0 0"></polygon>
    </defs>
    <g id="wroc_logo" stroke="none" stroke-width="1" fill="none" fill-rule="evenodd">
        <path d="M69.1038,22.1017 L55.6038,53.2037 L54.5028,50.8037 L66.9038,22.1017 L65.9038,22.1017 L53.9038,49.5027 L52.8028,47.1027 L63.7038,22.1017 L62.6038,22.1017 L52.3038,45.8027 L51.2028,43.4027 L60.4038,22.1017 L59.3038,22.1017 L50.6038,42.1027 L49.5028,39.7027 L57.1028,22.1017 L56.0038,22.1017 L48.9028,38.4027 L47.8028,36.0017 L53.9038,22.1017 L52.8028,22.1017 L47.3028,34.7027 L46.2028,32.3027 L50.6038,22.1017 L49.5028,22.1017 L45.6028,31.0017 L44.5028,28.6027 L47.3028,22.1017 L46.2028,22.1017 L43.9028,27.3017 L42.8028,24.9017 L44.0028,22.1017 L42.9028,22.1017 L42.3028,23.6017 L41.6028,22.1017 L26.2018,22.1017 L26.4018,22.5017 L21.1018,34.7027 L20.0018,32.3027 L24.4018,22.1017 L23.3008,22.1017 L19.4018,31.0017 L18.3018,28.6027 L21.1018,22.1017 L20.0018,22.1017 L17.7008,27.3017 L16.6018,24.9017 L17.8008,22.1017 L16.8008,22.1017 L16.1008,23.6017 L15.4008,22.1017 L-0.0002,22.1017 L22.3008,72.5047 L30.0028,54.7037 L29.9018,54.5037 L35.2018,42.4027 L48.5028,72.5047 L56.2028,54.7037 L56.1028,54.5037 L70.2048,22.1017 L69.1038,22.1017 Z M21.6018,36.0017 L26.9018,23.8017 L28.0018,26.3017 L22.7018,38.4027 L21.6018,36.0017 Z M23.3008,39.7027 L28.6018,27.6027 L29.7018,30.0017 L24.4018,42.1027 L23.3008,39.7027 Z M25.0008,43.4027 L30.3018,31.3027 L31.3018,33.7017 L26.1018,45.8027 L25.0008,43.4027 Z M26.6008,47.1027 L31.9018,35.0027 L33.0018,37.4027 L27.7018,49.5027 L26.6008,47.1027 Z M28.3018,50.8037 L33.6028,38.7017 L34.6018,41.2027 L29.4018,53.2037 L28.3018,50.8037 Z" id="Fill-1" fill="#1A1919"></path>
        <g id="Group-16" transform="translate(0, 0.0004)">
            <path d="M102.2007,42.3023 C96.6007,42.3023 92.0997,37.8023 92.0997,32.2013 C92.0997,26.6013 96.6007,22.1013 102.2007,22.1013 C107.8017,22.1013 112.3017,26.6013 112.3017,32.2013 C112.3017,37.8023 107.8017,42.3023 102.2007,42.3023 L102.2007,42.3023 Z M89.7007,70.6043 L90.7007,70.6043 L90.7007,22.1013 L89.7007,22.1013 L89.7007,70.6043 Z M86.6997,70.6043 L87.6997,70.6043 L87.6997,22.1013 L86.6997,22.1013 L86.6997,70.6043 Z M83.6997,70.6043 L84.6997,70.6043 L84.6997,22.1013 L83.6997,22.1013 L83.6997,70.6043 Z M80.6997,70.6043 L81.6997,70.6043 L81.6997,22.1013 L80.6997,22.1013 L80.6997,70.6043 Z M77.6997,70.6043 L78.6997,70.6043 L78.6997,22.1013 L77.6997,22.1013 L77.6997,70.6043 Z M74.6997,70.6043 L75.6997,70.6043 L75.6997,22.1013 L74.6997,22.1013 L74.6997,70.6043 Z M71.6987,70.6043 L72.6987,70.6043 L72.6987,22.1013 L71.6987,22.1013 L71.6987,70.6043 Z" id="Fill-2" fill="#1A1919"></path>
            <path d="M130.6997,23.1012 C131.2997,22.9012 134.3997,22.1012 134.8997,22.1012 L142.4007,22.1012 C142.5007,22.1012 145.9007,23.0012 146.2007,23.1012 L130.6997,23.1012 Z M127.3997,47.1022 C127.7997,52.9032 132.6997,57.4032 138.4997,57.4032 C144.3007,57.4032 149.3007,53.0032 149.7007,47.1022 L127.3997,47.1022 Z M124.9987,26.1012 L126.3997,25.1012 L150.9007,25.1012 L152.3007,26.1012 L124.9987,26.1012 Z M121.2987,29.1012 L122.3987,28.1012 L154.9007,28.1012 L155.9007,29.1012 L121.2987,29.1012 Z M118.8987,32.1012 L119.5987,31.1012 L157.7007,31.1012 L158.4017,32.1012 L118.8987,32.1012 Z M117.0987,35.1022 L117.5987,34.1012 L159.6007,34.1012 L160.2007,35.1022 L117.0987,35.1022 Z M115.7987,38.1022 L116.1987,37.1022 L161.0017,37.1022 L161.4017,38.1022 L115.7987,38.1022 Z M114.9987,41.1022 L115.2987,40.1022 L162.0017,40.1022 L162.2017,41.1022 L114.9987,41.1022 Z M114.4987,44.1022 L114.5987,43.1022 L162.5017,43.1022 L162.6017,44.1022 L114.4987,44.1022 Z M138.5997,70.5042 C125.1997,70.5042 114.2987,59.6032 114.2987,46.2032 L114.4987,46.2032 L114.3987,46.1022 L162.7017,46.1022 L162.7017,46.2032 L162.8017,46.2032 C162.8017,59.5032 152.0007,70.5042 138.5997,70.5042 L138.5997,70.5042 Z" id="Fill-4" fill="#1A1919"></path>
            <path d="M191.8999,35.1021 L191.0009,35.1021 C190.5999,35.1021 190.2999,35.1021 189.8999,35.2021 L189.8999,57.4031 C190.1999,57.4031 190.3999,57.5031 190.6999,57.5031 L191.8999,57.5031 L191.8999,35.1021 Z M188.8999,35.4021 C188.1999,35.6021 187.4999,35.8021 186.8999,36.1021 L186.8999,56.6031 C187.4999,56.9031 188.1999,57.1031 188.8999,57.2031 L188.8999,35.4021 Z M185.8999,36.6021 C185.1999,37.0021 184.4999,37.5021 183.8999,38.1021 L183.8999,54.6031 C184.4999,55.1031 185.1999,55.6031 185.8999,56.1031 L185.8999,36.6021 Z M182.8999,39.2021 C182.3999,39.8021 180.8999,42.1021 180.8999,42.8021 L180.8999,49.8031 C180.8999,50.5031 182.3999,52.8031 182.8999,53.5031 L182.8999,39.2021 Z M167.2979,46.3031 C167.2979,32.9021 178.1999,22.0011 191.5999,22.0011 L193.0009,22.0011 L193.0009,35.1021 L192.8999,35.1021 L192.8999,57.4031 L193.0009,57.4031 L193.0009,70.6041 C179.1999,70.5041 167.2979,60.6031 167.2979,46.3031 L167.2979,46.3031 Z" id="Fill-6" fill="#1A1919"></path>
            <mask id="mask-2" fill="white">
                <use xlink:href="#path-1"></use>
            </mask>
            <g id="Clip-9"></g>
            <polygon id="Fill-8" fill="#1A1919" mask="url(#mask-2)" points="201.497 70.604 215.398 70.604 215.398 0 201.497 0"></polygon>
            <path d="M238.2964,23.1012 C238.8964,22.9012 241.9964,22.1012 242.4964,22.1012 L249.9964,22.1012 C250.0974,22.1012 253.4974,23.0012 253.7974,23.1012 L238.2964,23.1012 Z M234.9954,47.1022 C235.3964,52.9032 240.2964,57.4032 246.0974,57.4032 C251.8974,57.4032 256.8974,53.0032 257.2974,47.1022 L234.9954,47.1022 Z M232.5964,26.1012 L233.9954,25.1012 L258.4974,25.1012 L259.8984,26.1012 L232.5964,26.1012 Z M228.8964,29.1012 L229.9954,28.1012 L262.4974,28.1012 L263.4974,29.1012 L228.8964,29.1012 Z M226.4954,32.1012 L227.1954,31.1012 L265.2984,31.1012 L265.9974,32.1012 L226.4954,32.1012 Z M224.6954,35.1022 L225.1954,34.1012 L267.1974,34.1012 L267.7984,35.1022 L224.6954,35.1022 Z M223.3954,38.1022 L223.7954,37.1022 L268.5984,37.1022 L268.9984,38.1022 L223.3954,38.1022 Z M222.5954,41.1022 L222.8954,40.1022 L269.5984,40.1022 L269.7984,41.1022 L222.5954,41.1022 Z M222.0954,44.1022 L222.1944,43.1022 L270.0984,43.1022 L270.1974,44.1022 L222.0954,44.1022 Z M246.1964,70.5042 C232.7954,70.5042 221.8954,59.6032 221.8954,46.2032 L222.0954,46.2032 L221.9954,46.1022 L270.2984,46.1022 L270.2984,46.2032 L270.3984,46.2032 C270.3984,59.5032 259.5974,70.5042 246.1964,70.5042 L246.1964,70.5042 Z" id="Fill-10" fill="#1A1919" mask="url(#mask-2)"></path>
            <polygon id="Fill-11" fill="#1A1919" mask="url(#mask-2)" points="301.2964 54.503 301.3974 54.703 293.6964 72.504 271.3954 22.101 286.7964 22.101 287.4954 23.601 288.1954 22.101 289.1954 22.101 287.9954 24.901 289.0964 27.301 291.3964 22.101 292.4964 22.101 289.6954 28.602 290.7964 31.002 294.6964 22.101 295.7964 22.101 291.3964 32.302 292.4964 34.702 297.9964 22.101 299.0974 22.101 292.9964 36.002 294.0964 38.402 301.1964 22.101 302.2974 22.101 294.6964 39.702 295.7964 42.102 304.4974 22.101 305.5974 22.101 296.3974 43.402 297.4964 45.802 307.7974 22.101 308.8974 22.101 297.9964 47.103 299.0974 49.503 311.0974 22.101 312.0974 22.101 299.6964 50.803 300.7964 53.203 314.2974 22.101 315.3984 22.101"></polygon>
            <path d="M340.1958,47.6026 L340.1958,70.6036 C326.7948,70.6036 315.8938,59.7036 315.8938,46.3026 C315.8938,32.9016 326.7948,22.1016 340.0948,22.1016 L340.0948,22.6016 C342.7958,22.6016 345.2968,22.7016 347.8958,23.6016 L340.0948,23.6016 L340.0948,25.6016 L352.5958,25.6016 L353.9968,26.6016 L340.0948,26.6016 L340.0948,28.6016 L356.5968,28.6016 L357.5968,29.6016 L340.0948,29.6016 L340.0948,31.6016 L359.2968,31.6016 L360.0968,32.6016 L340.0948,32.6016 L340.0948,34.6026 L361.1968,34.6026 L361.8968,35.6026 L340.0948,35.6026 L340.0948,37.6026 L362.5968,37.6026 L363.0968,38.6026 L340.0948,38.6026 L340.0948,40.6026 L363.5968,40.6026 L363.8968,41.6026 L340.0948,41.6026 L340.0948,43.6026 L364.0968,43.6026 L364.2978,44.6026 L340.0948,44.6026 L340.0948,46.6026 L364.3968,46.6026 L364.3968,47.6026 L340.1958,47.6026 Z" id="Fill-12" fill="#1A1919" mask="url(#mask-2)"></path>
            <path d="M377.9839,71.3741 C372.5929,71.3741 368.1939,66.9741 368.1939,61.5841 C368.1939,56.1941 372.5929,51.9041 377.9839,51.9041 C383.2629,51.9041 387.6639,56.3041 387.6639,61.5841 C387.6639,66.8641 383.3739,71.3741 377.9839,71.3741" id="Fill-13" fill="#D8232A" mask="url(#mask-2)"></path>
            <path d="M423.814,42.3023 C418.213,42.3023 413.713,37.8023 413.713,32.2013 C413.713,26.6013 418.213,22.1013 423.814,22.1013 C429.415,22.1013 433.915,26.6013 433.915,32.2013 C433.915,37.8023 429.415,42.3023 423.814,42.3023 L423.814,42.3023 Z M411.313,70.6043 L412.313,70.6043 L412.313,22.1013 L411.313,22.1013 L411.313,70.6043 Z M408.313,70.6043 L409.313,70.6043 L409.313,22.1013 L408.313,22.1013 L408.313,70.6043 Z M405.313,70.6043 L406.313,70.6043 L406.313,22.1013 L405.313,22.1013 L405.313,70.6043 Z M402.313,70.6043 L403.313,70.6043 L403.313,22.1013 L402.313,22.1013 L402.313,70.6043 Z M399.313,70.6043 L400.313,70.6043 L400.313,22.1013 L399.313,22.1013 L399.313,70.6043 Z M396.312,70.6043 L397.312,70.6043 L397.312,22.1013 L396.312,22.1013 L396.312,70.6043 Z M393.312,70.6043 L394.312,70.6043 L394.312,22.1013 L393.312,22.1013 L393.312,70.6043 Z" id="Fill-14" fill="#1A1919" mask="url(#mask-2)"></path>
            <path d="M477.814,54.2032 L477.814,38.7022 C478.014,39.8022 478.814,41.5022 478.814,42.5022 L478.814,50.0032 C478.814,51.2032 478.014,52.9032 477.814,54.2032 L477.814,54.2032 Z M474.814,59.9032 L474.814,32.5012 L475.814,34.0022 L475.814,58.5032 L474.814,59.9032 Z M471.814,63.6032 L471.814,28.9012 L472.814,29.9012 L472.814,62.5032 L471.814,63.6032 Z M468.814,66.0042 L468.814,26.5012 L469.814,27.2012 L469.814,65.3042 L468.814,66.0042 Z M465.814,67.8042 L465.814,24.7012 L466.814,25.3012 L466.814,67.3042 L465.814,67.8042 Z M462.813,69.0042 L462.813,23.5012 L463.814,23.9012 L463.814,68.7042 L462.813,69.0042 Z M459.813,69.8042 L459.813,22.7012 L460.813,22.9012 L460.813,69.6042 L459.813,69.8042 Z M456.813,70.3042 L456.813,22.3012 L457.813,22.4012 L457.813,70.2042 L456.813,70.3042 Z M453.813,70.5042 L454.813,70.5042 L454.813,22.2012 L453.813,22.2012 L453.813,70.5042 Z M437.912,70.6032 L451.813,70.6032 L451.813,-0.0008 L437.912,-0.0008 L437.912,70.6032 Z" id="Fill-15" fill="#1A1919" mask="url(#mask-2)"></path>
        </g>
    </g>
</svg>
