<?xml version="1.0" encoding="UTF-8"?>
<svg id="Layer_2" data-name="Layer 2" xmlns="http://www.w3.org/2000/svg" viewBox="0 0 460.31 80">
  <defs>
    <style>
      .cls-1 {
        stroke-width: 0px;
      }
    </style>
  </defs>
  <g id="Layer_2-2" data-name="Layer 2">
    <g id="Layer_1-2" data-name="Layer 1-2">
      <g>
        <g>
          <path class="cls-1" d="m154.01,44.84h-6.51v17.17h-7.19V19.39h15.28c7.49,0,13.21,4.08,13.21,12.72,0,6.57-3.41,10.53-8.22,12.05l8.83,17.84h-7.61l-7.79-17.17h0Zm.73-6.27c3.84,0,6.88-1.34,6.88-6.46s-3.04-6.45-6.88-6.45h-7.24v12.91s7.24,0,7.24,0Z"/>
          <path class="cls-1" d="m176.7,46.79c0-9.13,5.66-15.83,14.37-15.83s14.37,6.63,14.37,15.83-5.6,15.83-14.37,15.83-14.37-6.69-14.37-15.83Zm21.55,0c0-6.09-2.92-9.13-7.19-9.13s-7.18,3.05-7.18,9.13,3.04,9.13,7.18,9.13,7.19-3.05,7.19-9.13Z"/>
          <path class="cls-1" d="m227.03,44.84h-6.51v17.17h-7.19V19.39h15.28c7.49,0,13.21,4.08,13.21,12.72,0,6.57-3.41,10.53-8.22,12.05l8.83,17.84h-7.61l-7.79-17.17h0Zm.73-6.27c3.84,0,6.88-1.34,6.88-6.46s-3.04-6.45-6.88-6.45h-7.24v12.91s7.24,0,7.24,0Z"/>
          <path class="cls-1" d="m257.26,31.57l6.82,23.74,6.82-23.74h7.43l-9.62,30.44h-9.26l-9.62-30.44h7.43Z"/>
          <path class="cls-1" d="m287.26,51.3h6.33c0,3.41,2.62,5.48,6.82,5.48,3.77,0,6.76-1.4,6.76-3.96,0-1.52-.79-2.68-4.75-3.35l-5.36-.91c-4.81-.79-9.25-2.8-9.25-8.34,0-5.97,5.84-9.25,12.48-9.25,7.86,0,12.42,4.14,12.42,10.59h-6.33c0-2.92-2.38-4.75-6.09-4.75-3.1,0-5.72,1.46-5.72,3.71,0,2.37,2.44,2.8,5.23,3.29l4.69.79c5.9,1.1,9.43,2.92,9.43,8.34,0,6.21-5.72,9.68-13.51,9.68-8.4,0-13.15-4.81-13.15-11.32h0Z"/>
          <path class="cls-1" d="m328.21,19.39l3.11,30.87,4.26-18.08h3.04l4.26,18.08,3.11-30.87h7.18l-5.42,42.62h-5.66l-5-17.11-4.99,17.11h-5.66l-5.42-42.62h7.19Z"/>
          <path class="cls-1" d="m372.69,55.92v-18.27h-8.46v-6.09h15.22v24.35h8.4v6.09h-27.27v-6.09h12.12-.01Zm-2.01-33.73c0-2.68,2.01-4.81,4.75-4.81s4.81,2.13,4.81,4.81-2.13,4.75-4.81,4.75-4.75-2.07-4.75-4.75Z"/>
          <path class="cls-1" d="m406.58,55.74v-30.07h-8.28v-6.27h15.28v36.1h10.16v6.51h-27.27v-6.27s10.11,0,10.11,0Z"/>
          <path class="cls-1" d="m432.92,46.79c0-9.13,4.99-15.83,11.81-15.83,2.62,0,5.97,1.15,8.4,4.2v-15.77h7.18v42.62h-5.36l-.98-3.59c-2.86,3.04-5.66,4.2-8.82,4.2-7.24,0-12.24-6.69-12.24-15.83h.01Zm20.21,2.07v-4.14c0-4.56-3.71-6.69-6.27-6.69-5.48,0-6.76,5.96-6.76,8.76s1.28,8.77,6.76,8.77c2.56,0,6.27-2.13,6.27-6.7Z"/>
        </g>
        <g>
          <path class="cls-1" d="m63.68,71.41l-16.05-16.05,20.33-20.5-13.11-13.11h-23.02l-13.11,13.11,20.33,20.5-16.05,16.05L4.28,52.85l-4.28,4.32,23.02,22.83,20.32-20.32,20.32,20.32,23.02-22.83-4.28-4.32s-18.72,18.56-18.72,18.56Zm-11.35-43.58l7.05,7.05-16.04,16.17-16.04-16.17,7.05-7.05h17.98Z"/>
          <polygon class="cls-1" points="12.76 8.6 21.23 17.07 25.53 12.77 12.76 0 0 12.77 4.3 17.07 12.76 8.6"/>
          <polygon class="cls-1" points="73.92 8.6 82.39 17.07 86.69 12.77 73.92 0 61.16 12.77 65.46 17.07 73.92 8.6"/>
        </g>
      </g>
    </g>
  </g>
</svg>