<svg width="180" height="39" viewBox="0 0 180 39" fill="none" xmlns="http://www.w3.org/2000/svg">
<path fill-rule="evenodd" clip-rule="evenodd" d="M119.032 9.92231C119.032 8.93644 119.873 8.09326 120.857 8.09326C121.89 8.09326 122.682 8.95019 122.682 9.92231V13.0365H124.349C125.333 13.0365 126.102 13.8075 126.102 14.7934C126.102 15.7792 125.333 16.5502 124.349 16.5502H122.682V25.8344C122.682 26.4872 122.862 26.9034 123.089 27.15C123.311 27.3914 123.642 27.5414 124.097 27.5414C125.052 27.5414 125.886 28.2838 125.886 29.2983C125.886 30.3127 125.052 31.0552 124.097 31.0552C122.517 31.0552 121.229 30.5189 120.34 29.5524C119.458 28.5939 119.032 27.2807 119.032 25.8344V16.5502H118.301C117.317 16.5502 116.548 15.7792 116.548 14.7934C116.548 13.8075 117.317 13.0365 118.301 13.0365H119.032V9.92231ZM157.016 9.92231C157.016 8.93644 157.857 8.09326 158.841 8.09326C159.874 8.09326 160.666 8.95019 160.666 9.92231V13.0365H162.333C163.317 13.0365 164.086 13.8075 164.086 14.7934C164.086 15.7792 163.317 16.5502 162.333 16.5502H160.666V25.8344C160.666 26.4872 160.846 26.9034 161.073 27.15C161.295 27.3914 161.626 27.5414 162.081 27.5414C163.036 27.5414 163.87 28.2838 163.87 29.2983C163.87 30.3127 163.036 31.0552 162.081 31.0552C160.501 31.0552 159.213 30.5189 158.324 29.5524C157.442 28.5939 157.016 27.2807 157.016 25.8344V16.5502H156.285C155.301 16.5502 154.532 15.7792 154.532 14.7934C154.532 13.8075 155.301 13.0365 156.285 13.0365H157.016V9.92231ZM84.3532 15.0106C85.7736 13.365 87.8291 12.5313 90.3257 12.5313C93.4154 12.5313 95.3471 13.7764 96.4784 15.4208C97.5817 17.0246 97.8754 18.9347 97.8754 20.2417C97.8754 20.26 97.8754 20.2785 97.8755 20.2974C97.8758 20.7805 97.8763 21.4711 97.6464 22.0414C97.5177 22.3607 97.307 22.673 96.9671 22.8992C96.6291 23.1241 96.2209 23.2254 95.7623 23.2254H85.9496C86.0614 24.5639 86.509 25.6258 87.1945 26.3756C87.985 27.2401 89.1536 27.7579 90.6858 27.7579C92.5636 27.7579 93.6453 27.0607 94.6024 26.3413L94.6174 26.33L94.6329 26.3196C94.7499 26.2415 94.8951 26.1495 95.0733 26.0846C95.2612 26.0161 95.4499 25.9899 95.6543 25.9899C96.602 25.9899 97.3714 26.7609 97.3714 27.7107C97.3714 28.3801 97.0338 28.7614 96.7782 29.0175C96.1435 29.6535 94.1088 31.2356 90.6858 31.2356C88.1717 31.2356 86.0254 30.5419 84.5143 28.9515C83.0083 27.3666 82.236 24.9986 82.236 21.8654C82.236 18.9847 82.9449 16.6421 84.3532 15.0106ZM103.643 13.9674C104.675 13.0988 106.149 12.5313 107.86 12.5313C110.77 12.5313 112.651 13.4089 113.778 14.829C114.881 16.2187 115.157 18.0001 115.157 19.5923V29.2261C115.157 30.2481 114.352 31.0552 113.332 31.0552C112.312 31.0552 111.507 30.2481 111.507 29.2261V20.0613C111.507 18.6715 111.298 17.6626 110.795 17.0026C110.323 16.3844 109.482 15.9369 107.86 15.9369C106.219 15.9369 105.236 16.4291 104.645 17.138C104.036 17.8698 103.744 18.9503 103.744 20.3139V29.2261C103.744 30.2481 102.939 31.0552 101.919 31.0552C100.899 31.0552 100.094 30.2481 100.094 29.2261V14.5769C100.094 13.5549 100.899 12.7478 101.919 12.7478C102.725 12.7478 103.397 13.2517 103.643 13.9674ZM139.443 15.6941C140.588 13.8917 142.758 12.5313 145.988 12.5313C148.207 12.5313 150.012 13.1856 151.264 14.4098C152.518 15.6351 153.141 17.3568 153.141 19.3397V29.2622C153.141 30.2481 152.336 31.0552 151.352 31.0552C150.534 31.0552 149.839 30.4966 149.628 29.7412C148.415 30.746 146.733 31.2356 145.088 31.2356C143.081 31.2356 141.356 30.7527 140.119 29.7506C138.863 28.7327 138.186 27.24 138.186 25.4014C138.186 23.6263 138.869 22.1541 140.13 21.1407C141.373 20.1419 143.114 19.6395 145.16 19.6395H149.563V19.3397C149.563 18.2672 149.213 17.4656 148.639 16.9283C148.058 16.3859 147.175 16.0451 145.988 16.0451C145.102 16.0451 144.437 16.1787 143.88 16.4316C143.323 16.6842 142.829 17.0759 142.315 17.658L142.312 17.6613L142.309 17.6645C142.101 17.8939 141.886 18.0839 141.638 18.2118C141.376 18.347 141.122 18.3904 140.875 18.3904C139.927 18.3904 139.158 17.6194 139.158 16.6696C139.158 16.2619 139.283 15.9621 139.434 15.7092L139.438 15.7016L139.443 15.6941ZM166.302 15.6941C167.447 13.8917 169.617 12.5313 172.846 12.5313C175.066 12.5313 176.871 13.1856 178.123 14.4098C179.376 15.6351 180 17.3568 180 19.3397V29.2622C180 30.2481 179.195 31.0552 178.211 31.0552C177.393 31.0552 176.698 30.4966 176.487 29.7412C175.274 30.746 173.592 31.2356 171.946 31.2356C169.94 31.2356 168.215 30.7527 166.978 29.7506C165.721 28.7327 165.045 27.24 165.045 25.4014C165.045 23.6263 165.728 22.1541 166.989 21.1407C168.232 20.1419 169.973 19.6395 172.018 19.6395H176.422V19.3397C176.422 18.2672 176.072 17.4656 175.497 16.9283C174.917 16.3859 174.034 16.0451 172.846 16.0451C171.961 16.0451 171.296 16.1787 170.739 16.4316C170.182 16.6842 169.688 17.0759 169.174 17.658L169.171 17.6613L169.168 17.6645C168.96 17.8939 168.744 18.0839 168.497 18.2118C168.235 18.347 167.981 18.3904 167.734 18.3904C166.786 18.3904 166.017 17.6194 166.017 16.6696C166.017 16.2619 166.141 15.9621 166.293 15.7092L166.297 15.7016L166.302 15.6941ZM131.782 14.1648C132.845 13.1977 134.36 12.6035 136.159 12.6035C137.142 12.6035 137.948 13.4106 137.948 14.3965C137.948 15.3823 137.142 16.1894 136.159 16.1894C134.671 16.1894 133.619 16.7008 132.928 17.52C132.223 18.3554 131.827 19.5905 131.827 21.1438V29.2261C131.827 30.2481 131.022 31.0552 130.002 31.0552C128.982 31.0552 128.177 30.2481 128.177 29.2261V14.5769C128.177 13.5549 128.982 12.7478 130.002 12.7478C130.88 12.7478 131.599 13.3462 131.782 14.1648ZM65.7822 14.5769C65.7822 13.5549 66.5876 12.7478 67.6073 12.7478C68.0816 12.7478 68.4712 12.8979 68.7699 13.1499C69.0544 13.39 69.2156 13.688 69.3113 13.927C69.3116 13.9278 69.3119 13.9287 69.3123 13.9295L73.764 24.8455L78.2157 13.9295C78.216 13.9287 78.2163 13.9279 78.2167 13.927C78.3123 13.688 78.4735 13.39 78.7581 13.1499C79.0567 12.8979 79.4464 12.7478 79.9206 12.7478C80.9404 12.7478 81.7457 13.5549 81.7457 14.5769C81.7457 14.923 81.6471 15.18 81.6129 15.2692C81.6084 15.2808 81.6051 15.2895 81.6032 15.2953L81.595 15.3198L75.4599 29.9313L75.4551 29.9417C75.135 30.6368 74.5084 31.0552 73.764 31.0552C73.0196 31.0552 72.3929 30.6368 72.0728 29.9417L72.068 29.9313L65.9329 15.3198L65.9248 15.2953C65.9229 15.2896 65.9195 15.2808 65.915 15.2692C65.8808 15.18 65.7822 14.923 65.7822 14.5769ZM85.9996 19.856H94.2382C94.1687 18.8786 93.9369 17.9947 93.4698 17.3277C92.928 16.5541 91.9995 15.9729 90.3257 15.9729C88.9126 15.9729 87.8867 16.4233 87.1841 17.1722C86.5894 17.806 86.1785 18.705 85.9996 19.856ZM142.696 23.6298C142.187 23.9982 141.872 24.554 141.872 25.4014C141.872 26.1705 142.129 26.7258 142.614 27.1084C143.125 27.5114 143.98 27.794 145.304 27.794C146.433 27.794 147.505 27.4454 148.283 26.7924C149.045 26.152 149.563 25.1882 149.563 23.8499V23.0089H145.16C144.068 23.0089 143.237 23.2383 142.696 23.6298ZM169.555 23.6298C169.046 23.9982 168.731 24.554 168.731 25.4014C168.731 26.1705 168.988 26.7258 169.473 27.1084C169.984 27.5114 170.839 27.794 172.162 27.794C173.292 27.794 174.364 27.4454 175.141 26.7924C175.904 26.152 176.422 25.1882 176.422 23.8499V23.0089H172.018C170.927 23.0089 170.095 23.2383 169.555 23.6298Z" fill="#191E29"/>
<path d="M5.84341 8.33208C8.30081 8.33208 10.2929 6.36973 10.2929 3.94904C10.2929 2.92375 9.93555 1.98069 9.33681 1.23413L9.58185 1.05239C11.9327 -0.69112 15.2818 -0.219496 17.0622 2.1058L23.3513 10.3199C23.3513 10.3199 23.3034 16.082 20.9048 19.1157C18.5063 22.1494 15.4238 22.8247 15.4238 22.8247L14.0602 30.9052L1.08322 13.9564C-0.69716 11.6311 -0.234674 8.33273 2.11621 6.58921L2.22885 6.50568C3.03656 7.61179 4.35459 8.33208 5.84341 8.33208Z" fill="url(#paint0_linear_161_132)"/>
<path d="M50.2163 6.46548C49.4113 7.59392 48.0797 8.33138 46.5733 8.33138C44.1159 8.33138 42.1238 6.36903 42.1238 3.94834C42.1238 2.90564 42.4934 1.94798 43.1106 1.19557L42.9347 1.0651C40.5797 -0.681473 37.224 -0.204746 35.4464 2.12894L22.2564 19.4445C22.2564 19.4445 19.1881 22.8221 14.0512 22.8199C8.91423 22.8178 5.48828 19.7744 5.48828 19.7744L17.4812 35.2891C17.4812 35.2891 20.565 38.9971 26.3869 38.9995C32.2088 39.0019 34.9469 35.2964 34.9469 35.2964L51.3968 13.9649C53.1897 11.64 52.7316 8.33093 50.375 6.58315L50.2163 6.46548Z" fill="url(#paint1_linear_161_132)"/>
<defs>
<linearGradient id="paint0_linear_161_132" x1="2.00284" y1="31.3441" x2="32.0803" y2="18.8417" gradientUnits="userSpaceOnUse">
<stop stop-color="#FFD874"/>
<stop offset="0.454683" stop-color="#F11D46"/>
<stop offset="0.993682" stop-color="#460795"/>
</linearGradient>
<linearGradient id="paint1_linear_161_132" x1="9.51972" y1="39.5531" x2="58.8301" y2="6.84781" gradientUnits="userSpaceOnUse">
<stop stop-color="#FFD874"/>
<stop offset="0.454683" stop-color="#F11D46"/>
<stop offset="0.993682" stop-color="#460795"/>
</linearGradient>
</defs>
</svg>
