<?xml version="1.0" encoding="UTF-8"?>
<svg id="Camada_2" data-name="Camada 2" xmlns="http://www.w3.org/2000/svg" viewBox="0 0 246.43 199.43">
  <defs>
    <style>
      .cls-1 {
        fill: #e30f35;
      }

      .cls-2 {
        fill: #fff;
      }
    </style>
  </defs>
  <g id="Layer_3" data-name="Layer 3">
    <g>
      <path class="cls-2" d="M102.74,199.43c-.97,0-1.93-.06-2.87-.18h-1.32l-1.61-.56-.29-.07-.73-.28c-.61-.19-1.32-.44-2.12-.79-.56-.25-1.02-.49-1.46-.73-.36-.19-.76-.41-1.21-.68l-.21-.11-.99-.66c-.56-.39-1.01-.76-1.36-1.08-.47-.38-1.04-.88-1.65-1.5-.31-.31-.65-.68-.98-1.07-.38-.42-.75-.86-1.09-1.32L4.39,81.44c-.37-.49-.71-1.03-1.04-1.58l-.13-.21-.33-.57c-.6-1.07-1.1-2.18-1.52-3.33l-.23-.46-.79-2.98-.03-.55c-.2-1.19-.31-2.46-.31-3.72v-.51l.03-.47c.08-1.78.35-3.51.8-5.14l.38-1.19c.42-1.2.95-2.4,1.59-3.57.04-.08.33-.63.33-.63l.43-.69c.62-.95,1.26-1.8,1.97-2.61l.37-.53,1.06-1L54.17,6.27c4.2-4.05,9.72-6.27,15.53-6.27s11.83,2.47,16.01,6.78c2.29-.78,4.74-1.2,7.27-1.2,1.75,0,3.49.21,5.2.62l110.07,26.42c7.25,1.88,13.02,7.22,15.48,14.35l21.45,61.97c2.67,7.71.96,16.3-4.46,22.41-4.26,4.8-10.37,7.55-16.76,7.55-1.75,0-3.5-.21-5.21-.62l-4.72-1.13c-1.44,6.41-5.63,12.16-11.89,15.29l-89.35,44.67c-.58.29-1.16.54-1.76.76-.26.11-.56.22-.87.33-1.83.64-3.73,1.05-5.64,1.19l-.57.04s-1.04.01-1.22.01Z"/>
      <path class="cls-1" d="M14.89,67.79c0,.09-.01.18-.01.27,0,.6.08,1.2.22,1.79.01.05,0,.1.02.15.01.05.04.09.06.14.16.57.38,1.13.68,1.65.05.09.11.17.16.25.11.19.22.38.35.56l80.47,108.95c.09.13.21.23.31.34.13.16.26.32.41.47.22.22.46.42.7.61.1.08.18.17.28.24.03.02.07.04.1.06.25.17.52.31.79.45.13.07.26.15.39.21.29.13.6.22.9.31.11.03.23.09.34.12.01,0,.03,0,.04,0,.64.15,1.3.2,1.97.17.11,0,.22,0,.32,0,.63-.05,1.25-.19,1.86-.4.13-.05.26-.1.39-.15.17-.07.34-.12.51-.2l89.35-44.67c3.74-1.87,5.3-6.44,3.48-10.22-1.81-3.78-6.31-5.33-10.05-3.46l-63.15,31.57,33.38-48.34,63.09,15.14c2.68.64,5.5-.26,7.35-2.34,1.85-2.09,2.44-5.03,1.53-7.66l-21.46-61.97c-.84-2.42-2.83-4.24-5.29-4.84h-.02s-109.64-26.31-109.64-26.31c-4.03-.97-8.1,1.57-9.09,5.67-.98,4.09,1.48,8.2,5.5,9.18h.02s48.53,11.65,48.53,11.65l13.67,44.4-37.93-9.1c-4.03-.97-8.1,1.57-9.09,5.67-.98,4.09,1.48,8.2,5.5,9.18h.02s31.61,7.59,31.61,7.59l-40.77,59.05-1.92-2.6-10.01-74.74c.35-.62.66-1.28.83-2.01.98-4.09-1.48-8.2-5.5-9.18h-.02s-7.2-1.73-7.2-1.73c0,0,0,0,0,0h-.02s-18.19-4.37-18.19-4.37l-23.01-5.52,37.16-35.77c3.02-2.91,3.17-7.74.32-10.79-2.84-3.04-7.61-3.15-10.63-.24L17.23,62.48s-.06.09-.1.13c-.37.37-.72.77-1.01,1.23-.04.06-.06.12-.1.18-.05.08-.09.17-.14.25-.3.54-.55,1.09-.71,1.67,0,.01,0,.02-.01.03-.17.6-.24,1.21-.26,1.83Z"/>
    </g>
  </g>
</svg>