<?xml version="1.0" encoding="UTF-8"?>
<svg id="Camada_2" data-name="Camada 2" xmlns="http://www.w3.org/2000/svg" viewBox="0 0 305.98 399.33">
  <defs>
    <style>
      .cls-1 {
        fill: #fff;
      }
    </style>
  </defs>
  <g id="Layer_3" data-name="Layer 3">
    <g>
      <path class="cls-1" d="M305.67,179.07l-28.62-63.41c-.42-.94-1.24-1.64-2.23-1.92l-35.22-10.06,29.41-17.01c1.63-.94,2.22-3,1.34-4.67l-31.7-59.88c-.47-.9-1.31-1.54-2.3-1.77L149.16.09c-1.04-.24-2.13,0-2.96.66l-58.56,46.23c-1.43,1.13-1.76,3.18-.74,4.7l23.32,34.78-45.6,1.16c-.93.02-1.82.42-2.46,1.1L2.28,152.13c-.6.64-.94,1.48-.96,2.35L0,243.42c-.01.87.3,1.72.88,2.38l135.18,152.35c.67.75,1.63,1.18,2.62,1.18.19,0,.38-.02.58-.05,1.19-.2,2.19-.99,2.65-2.1l22.82-54.69,115.93-55.78c.96-.46,1.66-1.34,1.9-2.38l23.34-103.04c.17-.74.09-1.52-.22-2.21ZM298.39,182.74l-3.06,13.53c-.5-4.64.53-9.4,3.06-13.53ZM49.65,290.21c.62.45,1.44,1.2,1.82,2.05l-1.82-2.05ZM140.73,381.61c.05-.05.1-.11.16-.16l-.1.23s-.04-.04-.06-.06ZM143.05,376.27v-1.94c0-1.58.94-2.93,2.29-3.55l-2.29,5.49ZM160.5,336.75c-.77.37-1.38,1.01-1.71,1.81l-3.89,9.33h-7.15c-1.06,0-1.92.86-1.92,1.92s.86,1.92,1.92,1.92h5.54l-6.21,14.87s-.08-.01-.12-.01c-4.28,0-7.75,3.48-7.75,7.75v2.35c0,1.46-1.89,2.87-2.55,3.25-.6.34-.98.98-.98,1.67,0,.69.37,1.33.97,1.68.56.32,1.96,1.36,2.41,2.55l-1.46,3.51-14.56-16.41c.23-.39.46-.79.71-1.17.59-.88.35-2.07-.53-2.66-.88-.59-2.07-.35-2.66.53-.07.1-.12.2-.19.3l-4.31-4.85c.78-5.96-.58-12.13-4.06-17.35-.59-.88-1.78-1.12-2.66-.53-.88.59-1.12,1.78-.53,2.66,2.26,3.38,3.45,7.23,3.6,11.11l-11.02-12.42c-.13-1.93-1.21-3.47-2.29-4.53,1.15-1.13,2.32-2.8,2.32-4.92v-2.18c0-2.16,1.76-3.92,3.92-3.92,1.06,0,1.92-.86,1.92-1.92s-.86-1.92-1.92-1.92c-4.28,0-7.75,3.48-7.75,7.75v2.18c0,1.16-1.19,2.28-2.01,2.89l-4.32-4.87c1.3-1.39,2.11-3.24,2.11-5.29v-2.18c0-1.46,1.89-2.87,2.56-3.25.6-.34.97-.99.97-1.68s-.37-1.33-.98-1.67c-.66-.37-2.55-1.78-2.55-3.25v-2.35c0-4.28-3.48-7.75-7.75-7.75-1.06,0-1.92.86-1.92,1.92s.86,1.92,1.92,1.92c2.16,0,3.92,1.76,3.92,3.92v2.35c0,2.12,1.16,3.79,2.32,4.92-1.15,1.13-2.32,2.8-2.32,4.92v2.18c0,.91-.32,1.73-.84,2.4l-4.41-4.97c.09-.22.14-.46.14-.72,0-1.08-.88-1.96-1.96-1.96-.17,0-.34.03-.49.07l-5.12-5.77h7.97c1.06,0,1.92-.86,1.92-1.92s-.86-1.92-1.92-1.92h-6.72v-12.3c-1.27-.57-2.55-1.21-3.84-1.92v15.14l-3.49-3.93v-13.39c-1.28-.8-2.56-1.66-3.84-2.56v11.63l-6.29-7.09c.43-.35.7-.88.7-1.47,0-1.06-.86-1.92-1.92-1.92-2.16,0-3.92-1.76-3.92-3.92v-2.18c0-2.12-1.16-3.79-2.32-4.92.24-.24.48-.5.71-.79-.95-.88-1.88-1.77-2.8-2.66-.61.85-1.55,1.53-1.98,1.77-.6.34-.98.98-.98,1.67,0,.14.02.27.05.4l-5.41-6.1c1.34-.59,2.49-1.53,3.3-2.72-.94-.98-1.86-1.96-2.76-2.94-.54,1.37-1.84,2.36-3.38,2.46l-4.14-4.67c.14-.22.26-.45.41-.66.59-.88.35-2.07-.53-2.66-.81-.54-1.89-.37-2.51.35l-4.7-5.29c-.52-3.7-1.84-7.31-4.01-10.56-.59-.88-1.78-1.12-2.66-.53-.88.59-1.12,1.78-.53,2.66.22.34.43.68.63,1.03l-6.91-7.78,9.3-.58c-.34-.78-.67-1.55-.97-2.33l-10.1-.64c-.41-.03-.8.09-1.12.3l-5.1-5.74.12-8.28c.48-.44.96-.78,1.24-.94.6-.34.97-.99.97-1.68,0-.69-.37-1.33-.98-1.67-.26-.15-.7-.46-1.15-.86l.24-15.9s.03.02.04.03c.66.37,2.55,1.78,2.55,3.25v2.35c0,4.28,3.48,7.75,7.75,7.75.72,0,1.34-.4,1.67-.99.02-.56.06-1.12.1-1.68-.29-.69-.97-1.17-1.76-1.17-2.16,0-3.92-1.76-3.92-3.92v-2.35c0-2.12-1.16-3.79-2.32-4.92,1.15-1.13,2.32-2.8,2.32-4.92v-2.19c0-2.14,1.73-3.88,3.86-3.91-1.17-.9-2.17-1.98-3-3.21-2.76,1.19-4.7,3.93-4.7,7.13v2.19c0,1.46-1.87,2.86-2.54,3.24l.23-15.52c.26-.19.49-.35.64-.44.6-.34.97-.98.97-1.68s-.37-1.33-.98-1.67c-.14-.08-.35-.22-.57-.39l.21-14.39c.84-.22,1.46-.98,1.46-1.88s-.59-1.63-1.4-1.87l.22-14.57s.07-.04.09-.06c.6-.34.97-.99.97-1.68,0-.16-.03-.32-.07-.48l5.08-5.38c1.04.52,2.21.82,3.45.82.12,0,.23-.01.34-.03.48-.78.98-1.55,1.52-2.33-.2-.84-.96-1.47-1.86-1.47-.18,0-.36-.04-.53-.06l4.4-4.66c.41.66.78,1.33,1.12,2.02.85-1.02,1.75-2.06,2.71-3.1-.32-.57-.66-1.13-1.03-1.68-.03-.04-.07-.07-.1-.1l4.41-4.67c0,.96.05,1.92.16,2.88,1.15-1.13,2.36-2.29,3.65-3.46.03-1.33.19-2.65.47-3.96l12.75-13.5s.07.09.11.13c-1.15,1.13-2.32,2.8-2.32,4.92v2.35c0,.48-.1.94-.26,1.37,1.43-1.01,2.8-1.89,4.1-2.64v-1.08c0-1.46,1.89-2.87,2.55-3.25.6-.34.98-.98.98-1.67s-.37-1.33-.97-1.68c-.34-.19-.99-.66-1.55-1.25l4.6-4.87c1.4,2.02,3.73,3.35,6.37,3.35,1.06,0,1.92-.86,1.92-1.92s-.86-1.92-1.92-1.92c-1.64,0-3.02-1.02-3.6-2.45l4.82-5.11c-.02.11-.04.23-.04.35,0,1.08.88,1.96,1.96,1.96s1.96-.88,1.96-1.96-.88-1.96-1.96-1.96c-.16,0-.31.02-.46.06l4.13-4.38,23.61-.6c.42,1.25,1.18,2.28,1.97,3.06-1.15,1.13-2.32,2.8-2.32,4.92v2.18c0,2.16-1.76,3.92-3.92,3.92-1.06,0-1.92.86-1.92,1.92s.86,1.92,1.92,1.92c4.28,0,7.75-3.48,7.75-7.75v-2.18c0-1.46,1.89-2.87,2.56-3.25.6-.34.97-.99.97-1.68s-.37-1.33-.98-1.67c-.38-.22-1.15-.78-1.75-1.49l17.51-.44c1.62,5.88.7,12.28-2.78,17.57l-.08.12c-.58.88-.34,2.07.55,2.66.32.21.69.32,1.05.32.62,0,1.23-.3,1.6-.86l.08-.12c3.92-5.95,5.07-13.11,3.49-19.78l1.17-.03c.99-.02,1.9-.47,2.53-1.19.37.69.76,1.37,1.19,2.03l.08.12c.37.56.98.86,1.6.86.36,0,.73-.1,1.05-.32.88-.58,1.13-1.77.55-2.66l-.08-.12c-4.77-7.25-4.75-16.6.07-23.82.59-.88.35-2.07-.53-2.66-.88-.59-2.07-.35-2.66.53-3.45,5.17-4.8,11.26-4.08,17.17l-6.86-10.23c.25.11.51.19.78.19.62,0,1.23-.3,1.6-.86l.08-.12c5.63-8.54,5.59-19.55-.08-28.06-.59-.88-1.78-1.12-2.66-.53-.88.59-1.12,1.78-.53,2.66,4.82,7.22,4.85,16.57.07,23.82l-.08.12c-.22.34-.32.72-.32,1.09l-13.98-20.85,3.08-2.43c.16,4.13,3.57,7.45,7.74,7.45,1.06,0,1.92-.86,1.92-1.92s-.86-1.92-1.92-1.92c-2.16,0-3.92-1.76-3.92-3.92v-2.35c0-.12-.01-.23-.02-.34l15.82-12.49c-1.92,6.93-.84,14.47,3.27,20.71l.08.12c.37.56.98.86,1.6.86.36,0,.73-.1,1.05-.32.88-.58,1.13-1.77.55-2.66l-.08-.12c-4.75-7.21-4.74-16.5,0-23.7l8.88-7.01c.29.38.59.75.9,1.05-1.15,1.13-2.32,2.8-2.32,4.92v2.35c0,2.16-1.76,3.92-3.92,3.92-1.06,0-1.92.86-1.92,1.92s.86,1.92,1.92,1.92c4.28,0,7.75-3.48,7.75-7.75v-2.35c0-1.46,1.89-2.87,2.55-3.25.6-.34.98-.98.98-1.67,0-.69-.37-1.33-.97-1.68-.43-.24-1.35-.92-1.96-1.76l5.21-4.11c1.42,1.88,3.65,3.1,6.18,3.1,1.06,0,1.92-.86,1.92-1.92s-.86-1.92-1.92-1.92c-1.31,0-2.46-.65-3.17-1.64l5.12-4.04c.33.26.74.43,1.19.43.34,0,.66-.09.93-.24l23.07,5.36c-.31.08-.64.13-.98.13-1.06,0-1.92.86-1.92,1.92s.86,1.92,1.92,1.92c2.4,0,4.54-1.1,5.96-2.81l6.02,1.4v.94c0,1.46-1.89,2.87-2.56,3.25-.6.34-.97.98-.97,1.68,0,.69.37,1.33.98,1.67.66.37,2.55,1.78,2.55,3.25v2.35c0,2.2.93,4.19,2.41,5.6l6.69,1.6c.36-.35.58-.83.58-1.37,0-1.06-.86-1.92-1.92-1.92-2.16,0-3.92-1.76-3.92-3.92v-2.35c0-2.12-1.16-3.79-2.32-4.92,1.15-1.13,2.32-2.8,2.32-4.92v-.05l7.3,1.7c.15.27.36.52.64.7.33.21.69.32,1.05.32.4,0,.78-.14,1.11-.37l4.81,1.12c-.07,4.97,1.3,9.96,4.16,14.3l.08.12c.37.56.98.86,1.6.86.36,0,.73-.1,1.05-.32.88-.58,1.13-1.77.55-2.66l-.08-.12c-2.27-3.44-3.43-7.36-3.53-11.3l17.42,4.05c.77.64,1.64,1.6,1.64,2.59v2.18c0,4.28,3.48,7.75,7.75,7.75,1.06,0,1.92-.86,1.92-1.92s-.86-1.92-1.92-1.92c-2.16,0-3.92-1.76-3.92-3.92v-2.18c0-.48-.07-.93-.17-1.36l2.8.65.17.33c0,.05-.01.11-.01.16,0,.72.4,1.34.98,1.67l7.65,14.46v8.01h-6.72c-1.06,0-1.92.86-1.92,1.92s.86,1.92,1.92,1.92h10.55v-4.6l16.75,31.63-2.01,1.16c-.64.03-1.2.37-1.52.88l-28.96,16.75c-.45-1.05-1.14-1.93-1.83-2.61,1.15-1.13,2.32-2.8,2.32-4.92v-2.35c0-2.16,1.76-3.92,3.92-3.92,1.06,0,1.92-.86,1.92-1.92s-.86-1.92-1.92-1.92c-4.28,0-7.75,3.48-7.75,7.75v2.35c0,1.46-1.89,2.87-2.55,3.25-.6.34-.98.98-.98,1.67,0,.69.37,1.33.97,1.68.66.38,2.56,1.79,2.56,3.25v2.18c0,4.28,3.48,7.75,7.75,7.75,1.06,0,1.92-.86,1.92-1.92,0-.7-.38-1.31-.95-1.65l6.53,1.87v10.87c1.22.09,2.51.19,3.84.3v-10.07l3.49,1v9.27c1.3.14,2.58.31,3.84.51v-8.68l18.17,5.19,2.9,6.43-.35,2.57c-.07,1.06.77,1.95,1.83,1.95.18,0,.36-.04.52-.09l3.86,8.56c-2.5.1-4.69,1.37-6.05,3.29.85,1.04,1.71,2.16,2.59,3.37.47-1.63,1.96-2.84,3.75-2.84.47,0,.89-.17,1.22-.45l2.57,5.7c-.09.14-.16.29-.25.43l-.08.12c-.58.88-.34,2.07.55,2.66.32.21.69.32,1.05.32.1,0,.2-.02.3-.04l9.48,20.99v1.68l.78.05,2.06,4.56c-.85-.43-1.91-.17-2.45.64-.17.26-.32.53-.49.79.86,3.66.96,6.79.31,9.36-.93,3.66-1.93,7.47-2.99,11.32.29.96.66,1.91,1.07,2.84l-2.2,9.69c.08-2.17-.11-4.35-.59-6.48-2.03,6.91-4.26,13.74-6.71,19.81.11.13.24.25.39.35.32.21.69.32,1.05.32.62,0,1.23-.3,1.6-.86l.08-.12c.83-1.26,1.53-2.58,2.12-3.93l-2.41,10.63c-.63-.66-1.66-.8-2.45-.28-.88.59-1.12,1.78-.53,2.66.67,1.01,1.24,2.06,1.73,3.15l-6.26,27.64-3.51-.22c-1.06-.07-1.95.77-1.95,1.83s.89,1.9,1.95,1.83l2.77-.17-1.57,6.95-.21-1.51h-2.21l-.73,5.28c-.03.46.12.88.37,1.22l-4.49,2.16c-.68-.63-1.35-1.47-1.35-2.34v-2.35c0-4.28-3.48-7.75-7.75-7.75-1.06,0-1.92.86-1.92,1.92s.86,1.92,1.92,1.92c2.16,0,3.92,1.76,3.92,3.92v2.35c0,1.65.71,3.02,1.56,4.08l-7.12,3.42c-.36-.44-.9-.73-1.51-.73-1.08,0-1.96.88-1.96,1.96,0,.14.02.28.05.42l-19.29,9.28c.06-.18.1-.37.1-.57,0-1.06-.86-1.92-1.92-1.92-2.16,0-3.92-1.76-3.92-3.92v-2.18c0-2.12-1.16-3.79-2.32-4.92,1.15-1.13,2.32-2.8,2.32-4.92v-2.35c0-2.16,1.76-3.92,3.92-3.92,1.06,0,1.92-.86,1.92-1.92s-.86-1.92-1.92-1.92c-4.28,0-7.75,3.48-7.75,7.75v2.35c0,1.46-1.89,2.87-2.55,3.25-.6.34-.98.98-.98,1.67,0,.69.37,1.33.97,1.68.66.38,2.56,1.79,2.56,3.25v2.18c0,3.98,3.02,7.27,6.89,7.7l-7.76,3.73c-.16-.37-.43-.7-.8-.91-.66-.38-2.56-1.79-2.56-3.25v-2.18c0-4.28-3.48-7.75-7.75-7.75-1.06,0-1.92.86-1.92,1.92s.86,1.92,1.92,1.92c2.16,0,3.92,1.76,3.92,3.92v2.18c0,2.12,1.16,3.79,2.32,4.92-.65.64-1.3,1.46-1.74,2.42l-8.34,4.01c.12-.2.24-.4.37-.59.59-.88.35-2.07-.53-2.66-.88-.59-2.07-.35-2.66.53-1.14,1.71-2.03,3.52-2.71,5.38l-3.17,1.52c2.81-7.53,1.92-16.06-2.68-22.94-.59-.88-1.78-1.12-2.66-.53-.88.59-1.12,1.78-.53,2.66,4.75,7.12,4.83,16.31.25,23.51l-8.77,4.22c.65-.96,1.13-2.14,1.13-3.49v-2.19c0-2.16,1.76-3.92,3.92-3.92,1.06,0,1.92-.86,1.92-1.92s-.86-1.92-1.92-1.92c-4.28,0-7.75,3.48-7.75,7.75v2.19c0,1.46-1.89,2.87-2.56,3.25-.6.34-.97.99-.97,1.68,0,.5.2.96.53,1.31l-7.91,3.81c-.35-.05-.71-.08-1.08-.08-.91,0-1.68.64-1.87,1.5l-10.77,5.18ZM232.46,108.92l2.06.59s-.02,0-.03,0c-.75,0-1.44-.22-2.03-.59Z"/>
      <path class="cls-1" d="M225.05,118.6c1.08,0,1.96-.88,1.96-1.96s-.88-1.96-1.96-1.96-1.96.88-1.96,1.96.88,1.96,1.96,1.96Z"/>
      <path class="cls-1" d="M207.71,117.75l11.62.73c1.06.07,1.95-.77,1.95-1.83s-.89-1.9-1.95-1.83l-11.62.73v2.21Z"/>
      <path class="cls-1" d="M217.61,104.27l.73,5.28h2.21l.73-5.28c.07-1.06-.77-1.95-1.83-1.95s-1.9.89-1.83,1.95Z"/>
      <path class="cls-1" d="M237.64,92.3c-1.08,0-1.96.88-1.96,1.96s.88,1.96,1.96,1.96,1.96-.88,1.96-1.96-.88-1.96-1.96-1.96Z"/>
      <path class="cls-1" d="M150.11,111.27c-1.08,0-1.96.88-1.96,1.96s.88,1.96,1.96,1.96,1.96-.88,1.96-1.96-.88-1.96-1.96-1.96Z"/>
      <path class="cls-1" d="M160.05,111.27c-1.08,0-1.96.88-1.96,1.96s.88,1.96,1.96,1.96,1.96-.88,1.96-1.96-.88-1.96-1.96-1.96Z"/>
      <path class="cls-1" d="M131.15,104.65c0,2.16-1.76,3.92-3.92,3.92-1.06,0-1.92.86-1.92,1.92s.86,1.92,1.92,1.92c4.28,0,7.75-3.48,7.75-7.75v-2.35c0-1.46,1.89-2.87,2.55-3.25.6-.34.98-.98.98-1.67,0-.69-.37-1.33-.97-1.68-.66-.38-2.56-1.79-2.56-3.25v-2.19c0-4.28-3.48-7.75-7.75-7.75-1.06,0-1.92.86-1.92,1.92s.86,1.92,1.92,1.92c2.16,0,3.92,1.76,3.92,3.92v2.19c0,2.12,1.16,3.79,2.32,4.92-1.15,1.13-2.32,2.8-2.32,4.92v2.35Z"/>
      <path class="cls-1" d="M171.94,113.22c0-1.08-.88-1.96-1.96-1.96s-1.96.88-1.96,1.96.88,1.96,1.96,1.96,1.96-.88,1.96-1.96Z"/>
      <path class="cls-1" d="M225.05,42.72c1.08,0,1.96-.88,1.96-1.96s-.88-1.96-1.96-1.96-1.96.88-1.96,1.96.88,1.96,1.96,1.96Z"/>
      <path class="cls-1" d="M220.55,33.67l.73-5.28c.07-1.06-.77-1.95-1.83-1.95s-1.9.89-1.83,1.95l.73,5.28h2.21Z"/>
      <path class="cls-1" d="M237.64,64.87c1.08,0,1.96-.88,1.96-1.96s-.88-1.96-1.96-1.96-1.96.88-1.96,1.96.88,1.96,1.96,1.96Z"/>
      <path class="cls-1" d="M247.58,64.87c1.08,0,1.96-.88,1.96-1.96s-.88-1.96-1.96-1.96-1.96.88-1.96,1.96.88,1.96,1.96,1.96Z"/>
      <path class="cls-1" d="M226.74,54.18c0,1.46-1.89,2.87-2.55,3.25-.6.34-.98.98-.98,1.67,0,.69.37,1.33.97,1.68.66.38,2.56,1.79,2.56,3.25v2.18c0,4.28,3.48,7.75,7.75,7.75,1.06,0,1.92-.86,1.92-1.92s-.86-1.92-1.92-1.92c-2.16,0-3.92-1.76-3.92-3.92v-2.18c0-2.12-1.16-3.79-2.32-4.92,1.15-1.13,2.32-2.8,2.32-4.92v-2.35c0-2.16,1.76-3.92,3.92-3.92,1.06,0,1.92-.86,1.92-1.92s-.86-1.92-1.92-1.92c-4.28,0-7.75,3.48-7.75,7.75v2.35Z"/>
      <path class="cls-1" d="M247.58,87.19c4.58,0,8.31-3.73,8.31-8.31s-3.73-8.31-8.31-8.31-8.31,3.73-8.31,8.31,3.73,8.31,8.31,8.31ZM247.58,74.4c2.47,0,4.48,2.01,4.48,4.48s-2.01,4.48-4.48,4.48-4.48-2.01-4.48-4.48,2.01-4.48,4.48-4.48Z"/>
      <path class="cls-1" d="M133.74,72.11l-.73-5.28h-2.21l-.73,5.28c-.07,1.06.77,1.95,1.83,1.95s1.9-.89,1.83-1.95Z"/>
      <path class="cls-1" d="M72.52,102.81c1.08,0,1.96-.88,1.96-1.96s-.88-1.96-1.96-1.96-1.96.88-1.96,1.96.88,1.96,1.96,1.96Z"/>
      <path class="cls-1" d="M72.52,125.14c4.58,0,8.31-3.73,8.31-8.31s-3.73-8.31-8.31-8.31-8.31,3.73-8.31,8.31,3.73,8.31,8.31,8.31ZM72.52,112.34c2.47,0,4.48,2.01,4.48,4.48s-2.01,4.48-4.48,4.48-4.48-2.01-4.48-4.48,2.01-4.48,4.48-4.48Z"/>
      <path class="cls-1" d="M82.45,102.81c1.08,0,1.96-.88,1.96-1.96s-.88-1.96-1.96-1.96-1.96.88-1.96,1.96.88,1.96,1.96,1.96Z"/>
      <path class="cls-1" d="M137.52,361.32c-1.08,0-1.96.88-1.96,1.96s.88,1.96,1.96,1.96,1.96-.88,1.96-1.96-.88-1.96-1.96-1.96Z"/>
      <path class="cls-1" d="M131.8,361.44l-11.62.73v2.21l11.62.73c1.06.07,1.95-.77,1.95-1.83s-.89-1.9-1.95-1.83Z"/>
      <path class="cls-1" d="M133.74,350.9c.07-1.06-.77-1.95-1.83-1.95s-1.9.89-1.83,1.95l.73,5.28h2.21l.73-5.28Z"/>
      <path class="cls-1" d="M130.81,370.37l-.73,5.28c-.07,1.06.77,1.95,1.83,1.95s1.9-.89,1.83-1.95l-.73-5.28h-2.21Z"/>
      <path class="cls-1" d="M120.56,356.92c.37.56.98.86,1.6.86.36,0,.73-.1,1.05-.32.88-.58,1.13-1.77.55-2.66l-.08-.12c-4.77-7.25-4.75-16.6.07-23.82.59-.88.35-2.07-.53-2.66-.88-.59-2.07-.35-2.66.53-5.68,8.51-5.71,19.52-.08,28.06l.08.12Z"/>
      <path class="cls-1" d="M150.11,338.92c-1.08,0-1.96.88-1.96,1.96s.88,1.96,1.96,1.96,1.96-.88,1.96-1.96-.88-1.96-1.96-1.96Z"/>
      <path class="cls-1" d="M148.88,331.99c0-1.06-.86-1.92-1.92-1.92-4.28,0-7.75,3.48-7.75,7.75v2.35c0,1.46-1.89,2.87-2.55,3.25-.6.34-.98.98-.98,1.67s.37,1.33.97,1.68c.66.38,2.56,1.79,2.56,3.25v2.18c0,4.28,3.48,7.75,7.75,7.75,1.06,0,1.92-.86,1.92-1.92s-.86-1.92-1.92-1.92c-2.16,0-3.92-1.76-3.92-3.92v-2.18c0-2.12-1.16-3.79-2.32-4.92,1.15-1.13,2.32-2.8,2.32-4.92v-2.35c0-2.16,1.76-3.92,3.92-3.92,1.06,0,1.92-.86,1.92-1.92Z"/>
      <path class="cls-1" d="M137.53,326.7c.6-.34.98-.98.98-1.67,0-.69-.37-1.33-.97-1.68-.66-.38-2.56-1.79-2.56-3.25v-2.19c0-4.28-3.48-7.75-7.75-7.75-1.06,0-1.92.86-1.92,1.92s.86,1.92,1.92,1.92c2.16,0,3.92,1.76,3.92,3.92v2.19c0,2.12,1.16,3.79,2.32,4.92-1.15,1.13-2.32,2.8-2.32,4.92v2.35c0,2.16-1.76,3.92-3.92,3.92-1.06,0-1.92.86-1.92,1.92s.86,1.92,1.92,1.92c4.28,0,7.75-3.48,7.75-7.75v-2.35c0-1.46,1.89-2.87,2.55-3.25Z"/>
      <path class="cls-1" d="M218.34,275.51l-.73,5.28c-.07,1.06.77,1.95,1.83,1.95s1.9-.89,1.83-1.95l-.73-5.28h-2.21Z"/>
      <path class="cls-1" d="M237.64,288.61c-1.08,0-1.96.88-1.96,1.96s.88,1.96,1.96,1.96,1.96-.88,1.96-1.96-.88-1.96-1.96-1.96Z"/>
      <path class="cls-1" d="M247.58,288.61c-1.08,0-1.96.88-1.96,1.96s.88,1.96,1.96,1.96,1.96-.88,1.96-1.96-.88-1.96-1.96-1.96Z"/>
      <path class="cls-1" d="M270.11,266.46c-1.08,0-1.96.88-1.96,1.96s.88,1.96,1.96,1.96,1.96-.88,1.96-1.96-.88-1.96-1.96-1.96Z"/>
      <path class="cls-1" d="M152.07,309.54c0-1.08-.88-1.96-1.96-1.96s-1.96.88-1.96,1.96.88,1.96,1.96,1.96,1.96-.88,1.96-1.96Z"/>
      <path class="cls-1" d="M160.05,311.5c1.08,0,1.96-.88,1.96-1.96s-.88-1.96-1.96-1.96-1.96.88-1.96,1.96.88,1.96,1.96,1.96Z"/>
      <path class="cls-1" d="M146.96,320.59c1.06,0,1.92-.86,1.92-1.92s-.86-1.92-1.92-1.92c-2.16,0-3.92-1.76-3.92-3.92v-2.19c0-2.12-1.16-3.79-2.32-4.92,1.15-1.13,2.32-2.8,2.32-4.92v-2.35c0-2.16,1.76-3.92,3.92-3.92,1.06,0,1.92-.86,1.92-1.92s-.86-1.92-1.92-1.92c-4.28,0-7.75,3.48-7.75,7.75v2.35c0,1.46-1.89,2.87-2.55,3.25-.6.34-.98.98-.98,1.67,0,.69.37,1.33.97,1.68.66.38,2.56,1.79,2.56,3.25v2.19c0,4.28,3.48,7.75,7.75,7.75Z"/>
      <path class="cls-1" d="M160.05,317.19c-4.58,0-8.31,3.73-8.31,8.31s3.73,8.31,8.31,8.31,8.31-3.73,8.31-8.31-3.73-8.31-8.31-8.31ZM160.05,329.98c-2.47,0-4.48-2.01-4.48-4.48s2.01-4.48,4.48-4.48,4.48,2.01,4.48,4.48-2.01,4.48-4.48,4.48Z"/>
      <path class="cls-1" d="M182.58,285.43c-1.08,0-1.96.88-1.96,1.96s.88,1.96,1.96,1.96,1.96-.88,1.96-1.96-.88-1.96-1.96-1.96Z"/>
      <path class="cls-1" d="M186.35,287.39c0,1.06.89,1.9,1.95,1.83l11.62-.73v-2.21l-11.62-.73c-1.06-.07-1.95.77-1.95,1.83Z"/>
      <path class="cls-1" d="M186.35,275.01l.73,5.28h2.21l.73-5.28c.07-1.06-.77-1.95-1.83-1.95s-1.9.89-1.83,1.95Z"/>
      <path class="cls-1" d="M187.08,294.48l-.73,5.28c-.07,1.06.77,1.95,1.83,1.95s1.9-.89,1.83-1.95l-.73-5.28h-2.21Z"/>
      <path class="cls-1" d="M171.94,309.54c0-1.08-.88-1.96-1.96-1.96s-1.96.88-1.96,1.96.88,1.96,1.96,1.96,1.96-.88,1.96-1.96Z"/>
      <path class="cls-1" d="M183.44,304.05c-.66-.37-2.55-1.78-2.55-3.25v-2.35c0-4.28-3.48-7.75-7.75-7.75-1.06,0-1.92.86-1.92,1.92s.86,1.92,1.92,1.92c2.16,0,3.92,1.76,3.92,3.92v2.35c0,2.12,1.16,3.79,2.32,4.92-1.15,1.13-2.32,2.8-2.32,4.92v2.19c0,2.16-1.76,3.92-3.92,3.92-1.06,0-1.92.86-1.92,1.92s.86,1.92,1.92,1.92c4.28,0,7.75-3.48,7.75-7.75v-2.19c0-1.46,1.89-2.87,2.56-3.25.6-.34.97-.99.97-1.68,0-.69-.37-1.33-.98-1.67Z"/>
      <path class="cls-1" d="M99.55,313.45l-.73,5.28c-.07,1.06.77,1.95,1.83,1.95s1.9-.89,1.83-1.95l-.73-5.28h-2.21Z"/>
      <path class="cls-1" d="M109.34,312.18c-.88.59-1.12,1.78-.53,2.66,4.82,7.22,4.85,16.57.07,23.82l-.08.12c-.58.88-.34,2.07.55,2.66.32.21.69.32,1.05.32.62,0,1.23-.3,1.6-.86l.08-.12c5.63-8.54,5.59-19.55-.08-28.06-.59-.88-1.78-1.12-2.66-.53Z"/>
      <path class="cls-1" d="M13.12,235.12c-1.06,0-1.9.89-1.83,1.95l.73,5.28h2.21l.73-5.28c.07-1.06-.77-1.95-1.83-1.95Z"/>
      <path class="cls-1" d="M133.57,55.34s.02.04.02.06c.07.23.15.45.27.67.02.04.04.07.06.1.05.08.09.15.14.23l32.45,43.93c.04.05.08.09.12.14.05.06.11.13.17.19.09.09.18.17.28.25.04.03.07.07.11.1.01,0,.03.01.04.02.1.07.21.13.32.18.05.03.1.06.16.09.12.05.24.09.36.13.05.01.09.04.14.05,0,0,.01,0,.02,0,.26.06.53.08.79.07.04,0,.09,0,.13,0,.25-.02.5-.08.75-.16.05-.02.1-.04.16-.06.07-.03.14-.05.2-.08l36.03-18.01c1.51-.75,2.14-2.6,1.4-4.12-.73-1.52-2.54-2.15-4.05-1.39l-25.46,12.73,13.46-19.49,25.44,6.1c1.08.26,2.22-.1,2.96-.94.75-.84.98-2.03.62-3.09l-8.65-24.99c-.34-.98-1.14-1.71-2.13-1.95,0,0,0,0,0,0l-44.21-10.61c-1.63-.39-3.27.63-3.66,2.29-.4,1.65.6,3.3,2.22,3.7,0,0,0,0,0,0l19.57,4.69,5.51,17.9-15.29-3.67c-1.63-.39-3.27.63-3.66,2.29-.4,1.65.6,3.3,2.22,3.7,0,0,0,0,0,0l12.74,3.06-16.44,23.81-.77-1.05-4.04-30.13c.14-.25.26-.52.33-.81.4-1.65-.6-3.3-2.22-3.7,0,0,0,0,0,0l-2.9-.7s0,0,0,0c0,0,0,0,0,0l-7.33-1.76-9.28-2.23,14.98-14.42c1.22-1.17,1.28-3.12.13-4.35-1.15-1.23-3.07-1.27-4.29-.1l-19.05,18.34s-.03.04-.04.05c-.15.15-.29.31-.41.49-.02.02-.02.05-.04.07-.02.03-.04.07-.06.1-.12.22-.22.44-.29.67,0,0,0,0,0,.01-.07.24-.1.49-.11.74,0,.04,0,.07,0,.11,0,.24.03.48.09.72,0,.02,0,.04,0,.06Z"/>
      <path class="cls-1" d="M95.87,249.8c-2.1-14.69-4.9-27.23-5-31.35-.2-8.02-17.41.98-14.41,15.65,9.9,48.42-7.01,32.09-20.12,15.69-16.68-20.88-8.8-53.88-5.19-63.53,3.61-9.65,7.49-13.47-7.15-10.77-14.64,2.7-14.05-20.05-1.49-28.51,12.55-8.46,8.79,2.83,4,10.49-4.79,7.66,1.94,9.96,10.11.4,8.17-9.56,8.49-24.25,5.89-28.97-2.6-4.72-7.01-8.42-26.05,8.57-19.04,16.99-21.7,27.66-19.39,51,1.4,14.16,19.16,7.25,19.16,7.25-11.46,12.41-19,39.46-1.12,63.16,17.66,23.42,47.43,50.07,60.76,41.03,13.33-9.04,2.86-30.08,0-50.12Z"/>
      <path class="cls-1" d="M71.44,214.87c6.84-7.29,16.13-11.13,18.98-15.8,2.68-4.4,1.04-39.57,7.83-65.34.22-.82-.57-5.13-7.81,1.45-3.67,3.33-8.63,22.37-8.47,37.34.24,21.68-9.74,23.38-9.74,23.38,0,0,1.13-21.37,8.48-54.93,1.11-5.07-9.49,2.02-11.41,7.45-4.35,12.32-8,34.2-8,47.73s2.73,26.63,10.15,18.72Z"/>
      <path class="cls-1" d="M191.96,251.85c9.39-44.74,2.47-82.16-.78-96.4-2.05-8.97-12.85-26.71-11.51-13.3,6.81,67.83.45,87.26-2.52,92.61,0,0-19.23-17.27-19.76-27.44-.53-10.17,14.3-30.15,17.22-44.56,3.52-17.39-8.01-32.56-14.28-35.16-11.38-4.73-1.39,1.03-.33,20.29,1.04,18.79-8.64,37.52-14.57,51.49-5.93,13.96,1.49,29.7,13.39,44.64,11.74,14.74,28.35,30.58,33.13,7.83Z"/>
      <path class="cls-1" d="M99.55,207.46c2.94,47.08,12.61,79.76,15.65,83.45,3.04,3.69,17.97,1.56,19.41-3.65,1.44-5.22-1.49-7.01-6.36-24.52-4.88-17.52-22.72-68.18-13.83-117.39,0,0,6.51-6.01,12.26-5.22,5.75.79,13.77,2.71,9.07,21.07-3.79,14.8-11.93,25.24-14.58,34.27-2.01,6.85,16.16,82.78,33.72,88.16,17.56,5.39,28.3-11.13,20.37-14.59-7.94-3.47-36.39-27.97-42.56-67.9,0,0,23.12-33.6,19.3-58.33-3.82-24.73-28.54-25.66-46.43-12.59,0,0-8.94,30.16-6,77.24Z"/>
      <path class="cls-1" d="M205.71,131.16c-2.48-7.04-16.97-7.83-21.82-7.19-9.94,1.29,3.68,6.28,10.55,23.86,12.06,30.84,11.03,77.08,7.03,101.4-2.56,15.55-9.86,24.19,2.38,22.32,22.47-3.44,17.8-6.79,17.07-22.4-.59-12.76-2.26-49.81-3.14-49.49,0,0,1.85-3.65,4.24,3.51,6.26,18.74,18.77,61.12,30.48,60.09,16.19-1.42,20.52-6.54,13.87-11.83-14.63-11.63-21.46-29.81-28.17-46.7-6.16-15.49-3.12-46.21,13.96-70.1,5.26-7.36-4.26-4.81-13.32-5.92-9.06-1.1-9.68,2.18-10.49,5.28-2.28,8.72-11.28,45.82-11.28,45.82,0,0-6.98-36.23-11.36-48.67Z"/>
      <path class="cls-1" d="M242.87,191.68c1.99,22.98,21.6,51.24,26.89,44.27,7.28-9.61,17.06-31.19,17.37-47.32.24-12.71-4.77-19.44-15.35-34.58-8.6-12.3-13.73-13.88-15.91-11.93-6.8,6.03-14.98,26.59-12.99,49.57ZM258.55,161.52c.58-2.63,2.93-5.9,8.48,1.83,4.11,5.73,8.19,11.54,10,18.82.81,2.01,1.21,3.68.96,4.71-.04.16-.08.33-.12.51.08.98.13,1.99.12,3.03-.05,5.86-5.33,21.86-8.48,23.97-5.99,4.01-11.05-16.54-12.33-24.51-1.44-8.98-.04-22.04,1.37-28.35Z"/>
      <path class="cls-1" d="M39.7,127.54c-.99,0-1.8.75-1.9,1.72.74-.61,1.46-1.19,2.17-1.74-.09,0-.18.03-.27.03Z"/>
      <path class="cls-1" d="M11.29,161.18l.73,5.28h.06c.39-2.44.96-4.79,1.74-7.09-.21-.09-.45-.14-.69-.14-1.06,0-1.9.89-1.83,1.95Z"/>
      <path class="cls-1" d="M11.29,185.94c-.04.6.22,1.13.63,1.49-.12-1.32-.22-2.6-.31-3.86l-.33,2.37Z"/>
      <path class="cls-1" d="M23.03,202.77c-.47,1.06-1.03,2.1-1.68,3.09l-.08.12c-.58.88-.34,2.07.55,2.66.26.17.54.25.83.29.7-1.97,1.49-3.88,2.38-5.71-.69-.11-1.35-.26-2-.43Z"/>
      <path class="cls-1" d="M21.68,243.52c-.21-.73-.41-1.45-.59-2.18-.3.77-.07,1.65.59,2.18Z"/>
      <path class="cls-1" d="M55.51,205.03c0-.97.37-1.84.95-2.53-.11-1.6-.17-3.14-.19-4.55-.5.22-.97.5-1.41.82-1.49,7.25-2.47,16.52-1.32,25.67,1.42,1.66,3.53,2.72,5.88,2.72,1.06,0,1.92-.86,1.92-1.92s-.86-1.92-1.92-1.92c-2.16,0-3.92-1.76-3.92-3.92v-2.18c0-2.12-1.16-3.79-2.32-4.92,1.15-1.13,2.32-2.8,2.32-4.92v-2.35Z"/>
      <path class="cls-1" d="M60.69,218.92c-.63-.92-1.21-2.03-1.74-3.35-.4.35-.66.86-.66,1.44,0,1.06.86,1.92,1.92,1.92h.47Z"/>
      <path class="cls-1" d="M70.77,244.98v-22.05c-.79.22-1.59.34-2.39.34h0c-.46,0-.95-.04-1.45-.11v17.99h-6.72c-.46,0-.88.17-1.21.44.67,1.17,1.41,2.3,2.22,3.4h9.55Z"/>
      <path class="cls-1" d="M59.43,237.62c1.06,0,1.92-.86,1.92-1.92s-.86-1.92-1.92-1.92c-1.28,0-2.48.32-3.54.86.42,1.22.89,2.42,1.42,3.6.61-.4,1.34-.63,2.12-.63Z"/>
      <path class="cls-1" d="M72.52,254.58c.82,0,1.52-.51,1.81-1.22-.04-.55-.08-1.12-.14-1.74-.34-.57-.96-.95-1.67-.95-1.08,0-1.96.88-1.96,1.96s.88,1.96,1.96,1.96Z"/>
      <path class="cls-1" d="M89.71,208.86c.06.22.13.44.21.64,1.89.18,3.55.88,4.85,1.99-.04-.6-.08-1.21-.12-1.82-.66-.62-1.3-1.44-1.3-2.29v-1.47c-1.09,1.01-2.32,1.98-3.64,2.95Z"/>
      <path class="cls-1" d="M58.3,292.89c0,1.06.86,1.92,1.92,1.92h2.35c-1.29-1.01-2.56-2.05-3.83-3.13-.27.33-.44.75-.44,1.21Z"/>
      <path class="cls-1" d="M95.05,308.32c1.01,0,1.83-.76,1.93-1.74-1.12.43-2.29.74-3.52.93.35.49.93.82,1.58.82Z"/>
      <path class="cls-1" d="M110.92,293.84c-.54,1.36-1.21,2.68-2.04,3.93l-.08.12c-.58.88-.34,2.07.55,2.66.32.21.69.32,1.05.32.62,0,1.23-.3,1.6-.86l.08-.12c.68-1.03,1.27-2.09,1.78-3.18-.9-.55-1.69-1.21-2.33-1.98-.2-.24-.4-.54-.62-.89Z"/>
      <path class="cls-1" d="M118.1,298.43c-3.04,7.61-2.26,16.33,2.38,23.37l.08.12c.37.56.98.86,1.6.86.36,0,.73-.1,1.05-.32.88-.58,1.13-1.77.55-2.66l-.08-.12c-4.14-6.28-4.66-14.14-1.59-20.83-1.44-.02-2.77-.17-3.99-.43Z"/>
      <path class="cls-1" d="M146.06,284.02c-1.98-2.12-4.23-5.13-6.69-9.43.11.3.22.59.32.88.9,2.46,1.65,4.52,2.03,6.55,1.17,1.08,2.68,1.81,4.34,2.01Z"/>
      <path class="cls-1" d="M112.39,305.26l-11.62-.73s-.04,0-.06,0c-.17.12-.33.24-.5.36-.4.27-.82.52-1.24.75-.09.22-.15.46-.15.72,0,1.06.89,1.9,1.95,1.83l11.62-.73v-2.21Z"/>
      <path class="cls-1" d="M130.35,297.81l-.27,1.96c-.07,1.06.77,1.95,1.83,1.95s1.9-.89,1.83-1.95l-.41-2.96c-.98.4-1.98.73-2.99,1Z"/>
      <path class="cls-1" d="M158.3,290.44c-1.28-.2-2.56-.5-3.84-.88v8.49h-6.72c-1.06,0-1.92.86-1.92,1.92s.86,1.92,1.92,1.92h10.55v-11.45Z"/>
      <path class="cls-1" d="M174.27,299.97c0-1.06-.86-1.92-1.92-1.92h-6.72v-7.43c-.95.11-1.92.18-2.92.18h0c-.3,0-.61-.03-.91-.04v11.12h10.55c1.06,0,1.92-.86,1.92-1.92Z"/>
      <path class="cls-1" d="M196.41,278.8l-.08.12c-.58.88-.34,2.07.55,2.66.33.21.69.32,1.05.32.62,0,1.23-.3,1.6-.86l.08-.12c.65-.98,1.21-2,1.71-3.04-1.45-.06-2.76-.32-3.91-.78-.31.58-.64,1.15-1.01,1.71Z"/>
      <path class="cls-1" d="M211.22,300.71c-4.77-7.25-4.75-16.6.07-23.82.09-.13.15-.27.2-.41-1.52.3-3.15.58-4.88.86-4.12,8.07-3.67,17.78,1.41,25.48l.08.12c.37.56.98.86,1.6.86.36,0,.73-.1,1.05-.32.88-.58,1.13-1.77.55-2.66l-.08-.12Z"/>
      <path class="cls-1" d="M230.18,247.43c-.6-1.22-1.2-2.45-1.79-3.64.05.55.02,3.55,0,6.34.7-.71,1.38-1.61,1.8-2.69Z"/>
      <path class="cls-1" d="M234.5,261.27c-2.16,0-3.92-1.76-3.92-3.92v-2.18c0-2.05-1.09-3.67-2.2-4.8-.02,2.29-.03,4.38,0,4.79.25,2.53.49,5,.33,7.34,1.42,1.6,3.48,2.61,5.78,2.61,1.06,0,1.92-.86,1.92-1.92s-.86-1.92-1.92-1.92Z"/>
      <path class="cls-1" d="M227.01,268.44c-.38.63-.82,1.24-1.35,1.83.78-.25,1.34-.97,1.35-1.83Z"/>
      <path class="cls-1" d="M233.55,254.14c-.12.25-.19.52-.19.81,0,.95.7,1.74,1.6,1.89-.48-.88-.95-1.78-1.42-2.7Z"/>
      <path class="cls-1" d="M245.84,269.69c-1.31-.45-2.59-1.34-3.84-2.57v11.96h-6.72c-1.06,0-1.92.86-1.92,1.92s.86,1.92,1.92,1.92h10.55v-13.23Z"/>
      <path class="cls-1" d="M253.16,269.47c-1.33.2-2.62.35-3.84.47v12.98h10.55c1.06,0,1.92-.86,1.92-1.92s-.86-1.92-1.92-1.92h-6.72v-9.61Z"/>
      <path class="cls-1" d="M280.4,241.36c-1.08,0-2.06-.44-2.77-1.15-.59.93-1.19,1.8-1.79,2.6-.14.19-.31.35-.46.53,1.35,1.15,3.1,1.85,5.02,1.85,1.06,0,1.92-.86,1.92-1.92s-.86-1.92-1.92-1.92Z"/>
      <path class="cls-1" d="M287.07,158c-.59-.88-1.78-1.12-2.66-.53-.05.03-.08.07-.13.1,2.86,4.6,5.2,8.84,7,12.7-.31-4.29-1.71-8.52-4.21-12.27Z"/>
      <path class="cls-1" d="M260.66,123.79c2.16,0,3.92,1.76,3.92,3.92v2.35c0,2.12,1.16,3.79,2.32,4.92-.12.11-.23.24-.35.36.96.71,1.94,1.53,2.94,2.48.55-.56,1.16-.99,1.48-1.17.6-.34.97-.99.97-1.68s-.37-1.33-.98-1.67c-.66-.37-2.55-1.78-2.55-3.25v-2.35c0-4.28-3.48-7.75-7.75-7.75-1.06,0-1.92.86-1.92,1.92s.86,1.92,1.92,1.92Z"/>
      <path class="cls-1" d="M236.41,121.91s0-.02,0-.04c0-1.06-.86-1.92-1.92-1.92-1.64,0-3.15.51-4.4,1.38.95.03,1.94.1,3.02.23,1.06.13,2.18.24,3.3.35Z"/>
      <path class="cls-1" d="M219.7,130.95c.36-1.44.15-3.75,1.05-5.73l-.2-1.47h-2.21l-.73,5.28c-.07,1.06.77,1.95,1.83,1.95.09,0,.17-.01.25-.03Z"/>
      <path class="cls-1" d="M217.41,144.31c.56.52.97,1.19,1.15,1.96.12-1.62.09-3.43.16-5.74-.87-.52-1.84-.87-2.88-1.02.57,1.7,1.12,3.37,1.57,4.8Z"/>
      <path class="cls-1" d="M208.09,123c-.04.06-.07.12-.11.18,1.04.82,1.97,1.77,2.75,2.85.18-.3.36-.61.56-.9.59-.88.35-2.07-.53-2.66-.88-.59-2.07-.35-2.66.53Z"/>
      <path class="cls-1" d="M196.34,103.22c3.21,4.81,4.28,10.56,3.23,16.01,1.23.33,2.47.74,3.67,1.24,1.41-6.57.17-13.57-3.72-19.39-.59-.88-1.78-1.12-2.66-.53-.88.59-1.12,1.78-.53,2.66Z"/>
      <path class="cls-1" d="M173.13,128.47c-.38,0-.74.12-1.04.31.89,1.03,1.76,2.16,2.6,3.37.94-.19,1.81-.56,2.6-1.06-.78-1.14-1.39-2.29-1.71-3.5-.67.55-1.52.89-2.46.89Z"/>
      <path class="cls-1" d="M161.79,121.33c.55.22,1.14.45,1.81.73,1.08.45,2.24,1.13,3.44,2.01h5.31c1.06,0,1.92-.86,1.92-1.92s-.86-1.92-1.92-1.92h-10.55v1.1Z"/>
      <path class="cls-1" d="M151.06,122.86c.92-1.34,2.27-2.25,3.83-2.63h-7.14c-.44,0-.84.16-1.17.41,1.4.95,2.7,2.03,3.9,3.25.16-.34.35-.69.58-1.03Z"/>
      <path class="cls-1" d="M82.45,130.24c-1.08,0-1.96.88-1.96,1.96,0,.38.11.73.3,1.03.98,0,1.92.21,2.78.57.5-.35.84-.94.84-1.6,0-1.08-.88-1.96-1.96-1.96Z"/>
      <path class="cls-1" d="M70.6,131.81c.06.4.11.8.16,1.22.31.66.98,1.12,1.76,1.12,1.08,0,1.96-.88,1.96-1.96s-.88-1.96-1.96-1.96c-.95,0-1.74.68-1.92,1.57Z"/>
      <path class="cls-1" d="M85.6,125.23c2.1,0,3.81,1.67,3.9,3.74,1.22-.95,2.37-1.7,3.47-2.24-1.02-3.1-3.93-5.34-7.37-5.34-1.06,0-1.92.86-1.92,1.92s.86,1.92,1.92,1.92Z"/>
      <path class="cls-1" d="M95.03,118.02c.66.37,2.55,1.78,2.55,3.25v2.35c0,.69.1,1.35.27,1.98,1.27.05,2.47.39,3.53.99v-.02s.84-.61.84-.61c-.49-.66-.8-1.46-.8-2.34v-2.35c0-2.12-1.16-3.79-2.32-4.92,1.15-1.13,2.32-2.8,2.32-4.92v-2.18c0-2.16,1.76-3.92,3.92-3.92,1.06,0,1.92-.86,1.92-1.92s-.86-1.92-1.92-1.92c-4.28,0-7.75,3.48-7.75,7.75v2.18c0,1.46-1.89,2.87-2.56,3.25-.6.34-.97.99-.97,1.68s.37,1.33.98,1.67Z"/>
      <path class="cls-1" d="M111.98,120.03c-.6-.85-1.76-1.08-2.63-.5-.74.49-1.02,1.41-.75,2.21,1.11-.62,2.24-1.19,3.38-1.71Z"/>
      <path class="cls-1" d="M120.22,117.13c-.44-4.8.73-9.72,3.53-13.91.59-.88.35-2.07-.53-2.66-.88-.59-2.07-.35-2.66.53-3.45,5.17-4.8,11.26-4.08,17.16,1.24-.43,2.49-.8,3.74-1.11Z"/>
      <path class="cls-1" d="M143.05,110.18c0-2.16,1.76-3.92,3.92-3.92,1.06,0,1.92-.86,1.92-1.92s-.86-1.92-1.92-1.92c-4.28,0-7.75,3.48-7.75,7.75v2.35c0,1.46-1.89,2.87-2.55,3.25-.27.15-.49.37-.65.62,1.77.32,3.45.79,5.05,1.39-.11-.12-.22-.23-.32-.34,1.15-1.13,2.32-2.8,2.32-4.92v-2.35Z"/>
      <path class="cls-1" d="M218.68,83.32v2.35c0,2.16-1.76,3.92-3.92,3.92-1.06,0-1.92.86-1.92,1.92s.86,1.92,1.92,1.92c4.28,0,7.75-3.48,7.75-7.75v-2.35c0-.54.26-1.06.61-1.54-1.33.81-2.85,1.27-4.43,1.31,0,.08-.02.15-.02.22Z"/>
      <path class="cls-1" d="M225.84,79.24c-.15.21-.31.42-.48.61.2-.17.36-.38.48-.61Z"/>
      <path class="cls-1" d="M204.33,91.19c-1.3,6.44-.09,13.27,3.68,18.98l.08.12c.37.56.98.86,1.6.86.36,0,.73-.1,1.05-.32.88-.58,1.13-1.77.55-2.66l-.08-.12c-3.8-5.77-4.55-12.88-2.26-19.18l-4.62,2.31Z"/>
      <path class="cls-1" d="M199.54,94.26l.08-.12c.17-.26.32-.53.48-.8l-3.06,1.53c.29.15.59.24.9.24.62,0,1.23-.3,1.6-.86Z"/>
      <path class="cls-1" d="M188.14,99.32l-3.45,1.72c.25.4.42.82.42,1.25v2.35c0,4.28,3.48,7.75,7.75,7.75,1.06,0,1.92-.86,1.92-1.92s-.86-1.92-1.92-1.92c-2.16,0-3.92-1.76-3.92-3.92v-2.35c0-1.12-.33-2.12-.81-2.97Z"/>
      <path class="cls-1" d="M178.18,104.3l-4.14,2.07c1.72.41,3.01,1.95,3.01,3.8v2.35c0,2.12,1.16,3.79,2.32,4.92-.89.88-1.79,2.09-2.15,3.57,2.14-2.37,5.47-2.81,6.9-3,.06,0,.14-.01.21-.02.05-.18.09-.36.09-.56,0-.69-.37-1.33-.98-1.67-.66-.37-2.55-1.78-2.55-3.25v-2.35c0-2.35-1.05-4.45-2.71-5.87Z"/>
      <path class="cls-1" d="M218.97,47.86l2.13,6.16c.12-.27.19-.57.17-.88l-.73-5.28h-1.58Z"/>
      <path class="cls-1" d="M215.96,42.38l3.37.21c1.06.07,1.95-.77,1.95-1.83s-.89-1.9-1.95-1.83l-10.14.64,2.91.7c1.47.38,2.79,1.12,3.86,2.12Z"/>
      <path class="cls-1" d="M199.88,37.33l3.9.94c-.18-4.56-1.59-9.09-4.24-13.07-.59-.88-1.78-1.12-2.66-.53-.88.59-1.12,1.78-.53,2.66,2.04,3.06,3.21,6.5,3.53,10Z"/>
      <path class="cls-1" d="M153.83,92.35c-1.3,1.47-2.1,3.39-2.1,5.5,0,4.58,3.73,8.31,8.31,8.31,1.31,0,2.54-.31,3.64-.85-.15-.13-.32-.28-.5-.46-.13-.13-.26-.27-.39-.43-.15-.17-.3-.35-.44-.53l-1.25-1.7c-.34.08-.69.14-1.05.14-2.47,0-4.48-2.01-4.48-4.48,0-.83.24-1.61.64-2.28l-2.38-3.23Z"/>
      <path class="cls-1" d="M139.21,72.55v.6c0,1.46-1.89,2.87-2.55,3.25-.6.34-.98.98-.98,1.67s.37,1.33.97,1.68c.66.38,2.56,1.79,2.56,3.25v2.19c0,4.28,3.48,7.75,7.75,7.75,1.06,0,1.92-.86,1.92-1.92s-.86-1.92-1.92-1.92c-2.16,0-3.92-1.76-3.92-3.92v-2.19c0-2.12-1.16-3.79-2.32-4.92.47-.46.94-1.02,1.33-1.65l-2.85-3.86Z"/>
      <path class="cls-1" d="M129.9,59.75c-.15-.2-.29-.41-.42-.64l-.05-.08-.13-.23c-.13-.23-.22-.48-.33-.73l-8.79.55v2.21l11.04.69-1.31-1.77Z"/>
      <path class="cls-1" d="M130.37,48.58l.15-.21.43-.4,2.17-2.09c-.32-.28-.74-.47-1.21-.47-1.06,0-1.9.89-1.83,1.95l.19,1.35s.07-.08.1-.13Z"/>
      <path class="cls-1" d="M143.05,36.31v-2.02c0-2.16,1.76-3.92,3.92-3.92,1.06,0,1.92-.86,1.92-1.92s-.86-1.92-1.92-1.92c-4.28,0-7.75,3.48-7.75,7.75v2.35c0,1.46-1.89,2.87-2.55,3.25-.6.34-.98.98-.98,1.67,0,.5.2.97.54,1.33l6.83-6.57Z"/>
      <path class="cls-1" d="M156.24,27.11c2.42,0,4.76.99,6.45,2.73,3.29-1.11,5.68-4.22,5.68-7.88,0-4.58-3.73-8.31-8.31-8.31s-8.31,3.73-8.31,8.31c0,2.1.79,4.02,2.08,5.48.78-.22,1.59-.33,2.42-.33ZM160.05,17.49c2.47,0,4.48,2.01,4.48,4.48s-2.01,4.48-4.48,4.48-4.48-2.01-4.48-4.48,2.01-4.48,4.48-4.48Z"/>
      <path class="cls-1" d="M173.13,30.37c1.11,0,2.11.47,2.83,1.22l4.77,1.15c-.72-3.53-3.85-6.2-7.6-6.2-1.06,0-1.92.86-1.92,1.92s.86,1.92,1.92,1.92Z"/>
    </g>
  </g>
</svg>